<mxfile host="app.diagrams.net" modified="2023-04-11T09:53:11.787Z" agent="5.0 (X11; Linux x86_64) AppleWebKit/537.36 (KHTML, like Gecko) Chrome/111.0.0.0 Safari/537.36" etag="t0qrObvPCft0crKA9i46" version="21.0.8" type="github">
  <diagram name="Page-1" id="Y-Iyvq3cRTGdact2nQqe">
    <mxGraphModel dx="545" dy="367" grid="1" gridSize="10" guides="1" tooltips="1" connect="1" arrows="1" fold="1" page="1" pageScale="1" pageWidth="850" pageHeight="1100" math="0" shadow="0">
      <root>
        <mxCell id="0" />
        <mxCell id="1" parent="0" />
        <mxCell id="wuFarF5JBEkP8bmfM7L0-1" value="" style="rounded=0;whiteSpace=wrap;html=1;" vertex="1" parent="1">
          <mxGeometry x="360" y="75" width="370" height="285" as="geometry" />
        </mxCell>
        <mxCell id="wuFarF5JBEkP8bmfM7L0-31" value="" style="rounded=1;whiteSpace=wrap;html=1;dashed=1;" vertex="1" parent="1">
          <mxGeometry x="210" y="105" width="140" height="180" as="geometry" />
        </mxCell>
        <mxCell id="wuFarF5JBEkP8bmfM7L0-2" value="&lt;font face=&quot;Garamond&quot; style=&quot;font-size: 20px;&quot;&gt;Parser&lt;/font&gt;" style="text;html=1;strokeColor=none;fillColor=none;align=center;verticalAlign=middle;whiteSpace=wrap;rounded=0;" vertex="1" parent="1">
          <mxGeometry x="200" y="310" width="80" height="50" as="geometry" />
        </mxCell>
        <mxCell id="wuFarF5JBEkP8bmfM7L0-3" value="" style="rounded=0;whiteSpace=wrap;html=1;" vertex="1" parent="1">
          <mxGeometry x="430" y="280" width="120" height="60" as="geometry" />
        </mxCell>
        <mxCell id="wuFarF5JBEkP8bmfM7L0-5" value="&lt;font face=&quot;Garamond&quot; style=&quot;font-size: 20px;&quot;&gt;ACTION&lt;/font&gt;" style="text;html=1;strokeColor=none;fillColor=none;align=center;verticalAlign=middle;whiteSpace=wrap;rounded=0;" vertex="1" parent="1">
          <mxGeometry x="450" y="285" width="80" height="50" as="geometry" />
        </mxCell>
        <mxCell id="wuFarF5JBEkP8bmfM7L0-6" value="" style="rounded=0;whiteSpace=wrap;html=1;" vertex="1" parent="1">
          <mxGeometry x="550" y="280" width="120" height="60" as="geometry" />
        </mxCell>
        <mxCell id="wuFarF5JBEkP8bmfM7L0-7" value="&lt;font face=&quot;Garamond&quot; style=&quot;font-size: 20px;&quot;&gt;GOTO&lt;/font&gt;" style="text;html=1;strokeColor=none;fillColor=none;align=center;verticalAlign=middle;whiteSpace=wrap;rounded=0;" vertex="1" parent="1">
          <mxGeometry x="570" y="285" width="80" height="50" as="geometry" />
        </mxCell>
        <mxCell id="wuFarF5JBEkP8bmfM7L0-10" style="rounded=0;orthogonalLoop=1;jettySize=auto;html=1;exitX=0.25;exitY=1;exitDx=0;exitDy=0;entryX=0.5;entryY=0;entryDx=0;entryDy=0;" edge="1" parent="1" source="wuFarF5JBEkP8bmfM7L0-8" target="wuFarF5JBEkP8bmfM7L0-3">
          <mxGeometry relative="1" as="geometry" />
        </mxCell>
        <mxCell id="wuFarF5JBEkP8bmfM7L0-11" style="rounded=0;orthogonalLoop=1;jettySize=auto;html=1;exitX=0.75;exitY=1;exitDx=0;exitDy=0;entryX=0.5;entryY=0;entryDx=0;entryDy=0;" edge="1" parent="1" source="wuFarF5JBEkP8bmfM7L0-8" target="wuFarF5JBEkP8bmfM7L0-6">
          <mxGeometry relative="1" as="geometry" />
        </mxCell>
        <mxCell id="wuFarF5JBEkP8bmfM7L0-8" value="" style="rounded=0;whiteSpace=wrap;html=1;fillColor=#DBDBDB;" vertex="1" parent="1">
          <mxGeometry x="470" y="130" width="160" height="120" as="geometry" />
        </mxCell>
        <mxCell id="wuFarF5JBEkP8bmfM7L0-9" value="&lt;font face=&quot;Garamond&quot; style=&quot;font-size: 20px;&quot;&gt;LR(1) Parsing Algorithm&lt;/font&gt;" style="text;html=1;strokeColor=none;fillColor=none;align=center;verticalAlign=middle;whiteSpace=wrap;rounded=0;" vertex="1" parent="1">
          <mxGeometry x="495" y="155" width="110" height="70" as="geometry" />
        </mxCell>
        <mxCell id="wuFarF5JBEkP8bmfM7L0-33" style="edgeStyle=orthogonalEdgeStyle;rounded=0;orthogonalLoop=1;jettySize=auto;html=1;exitX=1;exitY=0.5;exitDx=0;exitDy=0;endArrow=none;endFill=0;startArrow=classic;startFill=1;" edge="1" parent="1" source="wuFarF5JBEkP8bmfM7L0-12">
          <mxGeometry relative="1" as="geometry">
            <mxPoint x="430" y="125.20000000000005" as="targetPoint" />
          </mxGeometry>
        </mxCell>
        <mxCell id="wuFarF5JBEkP8bmfM7L0-12" value="" style="rounded=0;whiteSpace=wrap;html=1;" vertex="1" parent="1">
          <mxGeometry x="370" y="115" width="40" height="20" as="geometry" />
        </mxCell>
        <mxCell id="wuFarF5JBEkP8bmfM7L0-13" value="" style="rounded=0;whiteSpace=wrap;html=1;" vertex="1" parent="1">
          <mxGeometry x="370" y="135" width="40" height="20" as="geometry" />
        </mxCell>
        <mxCell id="wuFarF5JBEkP8bmfM7L0-14" value="" style="rounded=0;whiteSpace=wrap;html=1;" vertex="1" parent="1">
          <mxGeometry x="370" y="155" width="40" height="20" as="geometry" />
        </mxCell>
        <mxCell id="wuFarF5JBEkP8bmfM7L0-15" value="" style="rounded=0;whiteSpace=wrap;html=1;" vertex="1" parent="1">
          <mxGeometry x="370" y="175" width="40" height="20" as="geometry" />
        </mxCell>
        <mxCell id="wuFarF5JBEkP8bmfM7L0-16" value="" style="rounded=0;whiteSpace=wrap;html=1;" vertex="1" parent="1">
          <mxGeometry x="370" y="195" width="40" height="20" as="geometry" />
        </mxCell>
        <mxCell id="wuFarF5JBEkP8bmfM7L0-17" value="" style="rounded=0;whiteSpace=wrap;html=1;" vertex="1" parent="1">
          <mxGeometry x="370" y="215" width="40" height="20" as="geometry" />
        </mxCell>
        <mxCell id="wuFarF5JBEkP8bmfM7L0-18" value="" style="rounded=0;whiteSpace=wrap;html=1;" vertex="1" parent="1">
          <mxGeometry x="370" y="235" width="40" height="20" as="geometry" />
        </mxCell>
        <mxCell id="wuFarF5JBEkP8bmfM7L0-19" value="" style="rounded=0;whiteSpace=wrap;html=1;" vertex="1" parent="1">
          <mxGeometry x="370" y="255" width="40" height="20" as="geometry" />
        </mxCell>
        <mxCell id="wuFarF5JBEkP8bmfM7L0-20" value="" style="ellipse;whiteSpace=wrap;html=1;aspect=fixed;dashed=1;" vertex="1" parent="1">
          <mxGeometry x="260" y="175" width="20" height="20" as="geometry" />
        </mxCell>
        <mxCell id="wuFarF5JBEkP8bmfM7L0-23" style="rounded=0;orthogonalLoop=1;jettySize=auto;html=1;endArrow=none;endFill=0;dashed=1;" edge="1" parent="1" source="wuFarF5JBEkP8bmfM7L0-29" target="wuFarF5JBEkP8bmfM7L0-20">
          <mxGeometry relative="1" as="geometry" />
        </mxCell>
        <mxCell id="wuFarF5JBEkP8bmfM7L0-22" value="" style="ellipse;whiteSpace=wrap;html=1;aspect=fixed;dashed=1;" vertex="1" parent="1">
          <mxGeometry x="320" y="155" width="20" height="20" as="geometry" />
        </mxCell>
        <mxCell id="wuFarF5JBEkP8bmfM7L0-24" value="" style="ellipse;whiteSpace=wrap;html=1;aspect=fixed;dashed=1;" vertex="1" parent="1">
          <mxGeometry x="320" y="235" width="20" height="20" as="geometry" />
        </mxCell>
        <mxCell id="wuFarF5JBEkP8bmfM7L0-25" style="rounded=0;orthogonalLoop=1;jettySize=auto;html=1;endArrow=none;endFill=0;dashed=1;" edge="1" parent="1" source="wuFarF5JBEkP8bmfM7L0-26" target="wuFarF5JBEkP8bmfM7L0-24">
          <mxGeometry relative="1" as="geometry" />
        </mxCell>
        <mxCell id="wuFarF5JBEkP8bmfM7L0-26" value="" style="ellipse;whiteSpace=wrap;html=1;aspect=fixed;dashed=1;" vertex="1" parent="1">
          <mxGeometry x="250" y="255" width="20" height="20" as="geometry" />
        </mxCell>
        <mxCell id="wuFarF5JBEkP8bmfM7L0-27" value="" style="ellipse;whiteSpace=wrap;html=1;aspect=fixed;dashed=1;" vertex="1" parent="1">
          <mxGeometry x="250" y="215" width="20" height="20" as="geometry" />
        </mxCell>
        <mxCell id="wuFarF5JBEkP8bmfM7L0-28" style="rounded=0;orthogonalLoop=1;jettySize=auto;html=1;endArrow=none;endFill=0;dashed=1;" edge="1" parent="1" source="wuFarF5JBEkP8bmfM7L0-24" target="wuFarF5JBEkP8bmfM7L0-27">
          <mxGeometry relative="1" as="geometry" />
        </mxCell>
        <mxCell id="wuFarF5JBEkP8bmfM7L0-29" value="" style="ellipse;whiteSpace=wrap;html=1;aspect=fixed;dashed=1;" vertex="1" parent="1">
          <mxGeometry x="290" y="195" width="20" height="20" as="geometry" />
        </mxCell>
        <mxCell id="wuFarF5JBEkP8bmfM7L0-35" value="&lt;font face=&quot;Garamond&quot; style=&quot;font-size: 20px;&quot;&gt;top&lt;/font&gt;" style="text;html=1;strokeColor=none;fillColor=none;align=center;verticalAlign=middle;whiteSpace=wrap;rounded=0;" vertex="1" parent="1">
          <mxGeometry x="435" y="115" width="25" height="15" as="geometry" />
        </mxCell>
        <mxCell id="wuFarF5JBEkP8bmfM7L0-39" style="rounded=0;orthogonalLoop=1;jettySize=auto;html=1;startArrow=none;startFill=0;endArrow=none;endFill=0;dashed=1;" edge="1" parent="1" source="wuFarF5JBEkP8bmfM7L0-36" target="wuFarF5JBEkP8bmfM7L0-27">
          <mxGeometry relative="1" as="geometry" />
        </mxCell>
        <mxCell id="wuFarF5JBEkP8bmfM7L0-36" value="" style="ellipse;whiteSpace=wrap;html=1;aspect=fixed;dashed=1;" vertex="1" parent="1">
          <mxGeometry x="220" y="195" width="20" height="20" as="geometry" />
        </mxCell>
        <mxCell id="wuFarF5JBEkP8bmfM7L0-38" style="rounded=0;orthogonalLoop=1;jettySize=auto;html=1;dashed=1;endArrow=none;endFill=0;" edge="1" parent="1" source="wuFarF5JBEkP8bmfM7L0-37" target="wuFarF5JBEkP8bmfM7L0-27">
          <mxGeometry relative="1" as="geometry" />
        </mxCell>
        <mxCell id="wuFarF5JBEkP8bmfM7L0-37" value="" style="ellipse;whiteSpace=wrap;html=1;aspect=fixed;dashed=1;" vertex="1" parent="1">
          <mxGeometry x="220" y="235" width="20" height="20" as="geometry" />
        </mxCell>
        <mxCell id="wuFarF5JBEkP8bmfM7L0-40" value="" style="ellipse;whiteSpace=wrap;html=1;aspect=fixed;dashed=1;" vertex="1" parent="1">
          <mxGeometry x="300" y="135" width="20" height="20" as="geometry" />
        </mxCell>
        <mxCell id="wuFarF5JBEkP8bmfM7L0-50" style="rounded=0;orthogonalLoop=1;jettySize=auto;html=1;dashed=1;endArrow=none;endFill=0;" edge="1" parent="1" source="wuFarF5JBEkP8bmfM7L0-41" target="wuFarF5JBEkP8bmfM7L0-12">
          <mxGeometry relative="1" as="geometry" />
        </mxCell>
        <mxCell id="wuFarF5JBEkP8bmfM7L0-41" value="" style="ellipse;whiteSpace=wrap;html=1;aspect=fixed;dashed=1;" vertex="1" parent="1">
          <mxGeometry x="320" y="115" width="20" height="20" as="geometry" />
        </mxCell>
        <mxCell id="wuFarF5JBEkP8bmfM7L0-44" style="rounded=0;orthogonalLoop=1;jettySize=auto;html=1;exitX=1;exitY=0.5;exitDx=0;exitDy=0;entryX=0;entryY=0.5;entryDx=0;entryDy=0;endArrow=none;endFill=0;dashed=1;" edge="1" parent="1" source="wuFarF5JBEkP8bmfM7L0-42" target="wuFarF5JBEkP8bmfM7L0-22">
          <mxGeometry relative="1" as="geometry" />
        </mxCell>
        <mxCell id="wuFarF5JBEkP8bmfM7L0-42" value="" style="ellipse;whiteSpace=wrap;html=1;aspect=fixed;dashed=1;" vertex="1" parent="1">
          <mxGeometry x="280" y="155" width="20" height="20" as="geometry" />
        </mxCell>
        <mxCell id="wuFarF5JBEkP8bmfM7L0-45" style="rounded=0;orthogonalLoop=1;jettySize=auto;html=1;endArrow=none;endFill=0;dashed=1;" edge="1" parent="1" source="wuFarF5JBEkP8bmfM7L0-40" target="wuFarF5JBEkP8bmfM7L0-13">
          <mxGeometry relative="1" as="geometry">
            <mxPoint x="310" y="175" as="sourcePoint" />
            <mxPoint x="330" y="175" as="targetPoint" />
          </mxGeometry>
        </mxCell>
        <mxCell id="wuFarF5JBEkP8bmfM7L0-47" value="&lt;font face=&quot;Garamond&quot; style=&quot;font-size: 20px;&quot;&gt;AST&lt;/font&gt;" style="text;html=1;strokeColor=none;fillColor=none;align=center;verticalAlign=middle;whiteSpace=wrap;rounded=0;dashed=1;" vertex="1" parent="1">
          <mxGeometry x="220" y="115" width="50" height="15" as="geometry" />
        </mxCell>
        <mxCell id="wuFarF5JBEkP8bmfM7L0-48" value="&lt;font face=&quot;Garamond&quot;&gt;$&lt;/font&gt;" style="rounded=0;whiteSpace=wrap;html=1;" vertex="1" parent="1">
          <mxGeometry x="370" y="275" width="40" height="20" as="geometry" />
        </mxCell>
        <mxCell id="wuFarF5JBEkP8bmfM7L0-51" style="rounded=0;orthogonalLoop=1;jettySize=auto;html=1;dashed=1;endArrow=none;endFill=0;" edge="1" parent="1" source="wuFarF5JBEkP8bmfM7L0-22" target="wuFarF5JBEkP8bmfM7L0-14">
          <mxGeometry relative="1" as="geometry">
            <mxPoint x="340" y="164.8" as="sourcePoint" />
            <mxPoint x="370" y="164.8" as="targetPoint" />
          </mxGeometry>
        </mxCell>
        <mxCell id="wuFarF5JBEkP8bmfM7L0-52" style="rounded=0;orthogonalLoop=1;jettySize=auto;html=1;dashed=1;endArrow=none;endFill=0;" edge="1" parent="1" source="wuFarF5JBEkP8bmfM7L0-29" target="wuFarF5JBEkP8bmfM7L0-16">
          <mxGeometry relative="1" as="geometry">
            <mxPoint x="310" y="204.8" as="sourcePoint" />
            <mxPoint x="340" y="204.8" as="targetPoint" />
          </mxGeometry>
        </mxCell>
        <mxCell id="wuFarF5JBEkP8bmfM7L0-53" style="rounded=0;orthogonalLoop=1;jettySize=auto;html=1;dashed=1;endArrow=none;endFill=0;" edge="1" parent="1" source="wuFarF5JBEkP8bmfM7L0-24" target="wuFarF5JBEkP8bmfM7L0-18">
          <mxGeometry relative="1" as="geometry">
            <mxPoint x="300" y="244.8" as="sourcePoint" />
            <mxPoint x="360" y="244.8" as="targetPoint" />
          </mxGeometry>
        </mxCell>
        <mxCell id="wuFarF5JBEkP8bmfM7L0-54" value="" style="ellipse;whiteSpace=wrap;html=1;aspect=fixed;dashed=1;" vertex="1" parent="1">
          <mxGeometry x="300" y="255" width="20" height="20" as="geometry" />
        </mxCell>
        <mxCell id="wuFarF5JBEkP8bmfM7L0-55" style="rounded=0;orthogonalLoop=1;jettySize=auto;html=1;dashed=1;endArrow=none;endFill=0;" edge="1" parent="1" source="wuFarF5JBEkP8bmfM7L0-54" target="wuFarF5JBEkP8bmfM7L0-19">
          <mxGeometry relative="1" as="geometry">
            <mxPoint x="350" y="255" as="sourcePoint" />
            <mxPoint x="380" y="255" as="targetPoint" />
          </mxGeometry>
        </mxCell>
      </root>
    </mxGraphModel>
  </diagram>
</mxfile>
